<?xml version="1.0" standalone="no"?>
<!DOCTYPE svg PUBLIC "-//W3C//DTD SVG 20010904//EN"
 "http://www.w3.org/TR/2001/REC-SVG-20010904/DTD/svg10.dtd">
<svg version="1.0" xmlns="http://www.w3.org/2000/svg"
 width="459.000000pt" height="459.000000pt" viewBox="0 0 459.000000 459.000000"
 preserveAspectRatio="xMidYMid meet">
<metadata>
Created by potrace 1.11, written by Peter Selinger 2001-2013
</metadata>
<g transform="translate(0.000000,459.000000) scale(0.100000,-0.100000)"
fill="#000000" stroke="none">
<path d="M268 4368 c-243 -85 -343 -374 -204 -592 178 -278 603 -224 711 91
33 96 23 219 -26 315 -28 55 -106 132 -164 162 -98 50 -219 59 -317 24z"/>
<path d="M2167 4194 c-1 -1 -33 -5 -72 -8 -96 -8 -152 -16 -205 -26 -25 -6
-56 -12 -70 -14 -72 -12 -239 -61 -341 -100 -201 -76 -400 -186 -559 -309 -60
-46 -221 -203 -280 -272 -53 -62 -160 -233 -199 -317 -98 -211 -134 -374 -135
-613 -1 -229 14 -335 71 -505 155 -460 569 -857 1089 -1046 243 -87 483 -127
774 -129 109 0 144 4 184 19 149 57 198 208 81 250 -11 4 -60 9 -110 11 -725
31 -1273 437 -1430 1059 -33 133 -36 154 -39 336 -6 316 61 554 227 802 204
305 507 505 882 583 111 23 189 30 340 29 200 -1 344 -27 520 -93 61 -22 126
-42 145 -44 74 -7 209 41 289 102 l23 18 -118 57 c-144 70 -142 69 -231 100
-215 75 -423 108 -696 110 -76 1 -139 1 -140 0z"/>
<path d="M4430 3775 c-110 -31 -164 -69 -234 -169 -65 -92 -99 -171 -192 -453
-135 -407 -196 -534 -315 -654 -78 -79 -158 -127 -259 -157 -94 -28 -97 -28
-172 4 -163 69 -359 244 -596 534 -30 36 -70 85 -90 110 -229 278 -448 460
-602 498 -84 21 -80 23 -177 -74 -104 -102 -108 -112 -66 -183 80 -138 135
-197 794 -847 231 -227 326 -328 404 -433 77 -101 87 -129 93 -251 7 -151 -10
-224 -152 -670 -100 -310 -111 -361 -111 -510 0 -152 14 -231 49 -275 23 -29
28 -30 101 -30 75 0 78 1 104 32 40 48 131 206 178 308 61 133 141 375 168
504 47 230 49 239 60 451 4 68 11 134 16 147 5 13 7 23 4 23 -7 0 42 123 86
217 72 156 138 244 242 322 478 361 886 1089 817 1457 -11 60 -37 103 -63 105
-7 0 -19 2 -27 3 -8 2 -35 -3 -60 -9z"/>
<path d="M3235 3585 c-83 -18 -146 -49 -207 -104 -198 -177 -206 -476 -18
-660 181 -177 460 -177 640 2 55 54 114 164 125 232 7 48 8 141 0 173 -3 12
-7 31 -10 43 -11 50 -64 137 -115 189 -108 111 -262 157 -415 125z"/>
</g>
</svg>
